<?xml version="1.0"?>
<svg xmlns="http://www.w3.org/2000/svg" id="Layer_1" enable-background="new 0 0 512 512" height="512px" viewBox="0 0 512 512" width="512px" class=""><g><g><path d="m336.781 361.774h-161.562l39.624-200.758h82.314z" fill="#ea9f54" data-original="#EA9F54" class="" style="fill:#FFFFFF" data-old_color="#ea9f54"/><path d="m297.157 161.016h-30.932l39.625 200.758h30.931z" fill="#d78b3e" data-original="#D78B3E" class="active-path" style="fill:#FDFDFD" data-old_color="#d78b3e"/><ellipse cx="256" cy="78.294" fill="#ea9f54" rx="78.359" ry="78.294" data-original="#EA9F54" class="" style="fill:#FFFFFF" data-old_color="#ea9f54"/><path d="m256 0c-5.295 0-10.465.532-15.466 1.532 35.868 7.175 62.893 38.812 62.893 76.761s-27.025 69.586-62.893 76.761c5.001 1.001 10.17 1.532 15.466 1.532 43.276 0 78.359-35.053 78.359-78.294s-35.083-78.292-78.359-78.292z" fill="#d78b3e" data-original="#D78B3E" class="active-path" style="fill:#FDFDFD" data-old_color="#d78b3e"/><path d="m339.528 169.953h-167.056c-9.672 0-17.513-7.841-17.513-17.513 0-9.672 7.841-17.513 17.513-17.513h167.057c9.672 0 17.513 7.841 17.513 17.513-.001 9.672-7.841 17.513-17.514 17.513z" fill="#d78b3e" data-original="#D78B3E" class="active-path" style="fill:#FDFDFD" data-old_color="#d78b3e"/><path d="m339.514 134.927h-30.931c9.68 0 17.528 7.841 17.528 17.513 0 9.672-7.847 17.513-17.528 17.513h30.931c9.68 0 17.528-7.841 17.528-17.513-.001-9.672-7.848-17.513-17.528-17.513z" fill="#bd742b" data-original="#BD742B" class="" style="fill:#FBFBFB" data-old_color="#bd742b"/><path d="m388.166 512h-264.332c-11.199 0-19.456-10.492-16.851-21.413l27.335-114.571h243.364l27.335 114.571c2.605 10.921-5.652 21.413-16.851 21.413z" fill="#ea9f54" data-original="#EA9F54" class="" style="fill:#FFFFFF" data-old_color="#ea9f54"/><path d="m405.017 490.587-27.335-114.571h-30.931l27.335 114.571c2.605 10.92-5.652 21.413-16.851 21.413h30.931c11.199 0 19.456-10.492 16.851-21.413z" fill="#d78b3e" data-original="#D78B3E" class="active-path" style="fill:#FDFDFD" data-old_color="#d78b3e"/><path d="m374.583 387.863h-237.166c-9.672 0-17.513-7.841-17.513-17.513 0-9.672 7.841-17.513 17.513-17.513h237.167c9.672 0 17.513 7.841 17.513 17.513 0 9.672-7.841 17.513-17.514 17.513z" fill="#d78b3e" data-original="#D78B3E" class="active-path" style="fill:#FDFDFD" data-old_color="#d78b3e"/><path d="m374.569 352.837h-30.931c9.68 0 17.528 7.841 17.528 17.513 0 9.672-7.847 17.513-17.528 17.513h30.931c9.68 0 17.528-7.841 17.528-17.513 0-9.672-7.848-17.513-17.528-17.513z" fill="#bd742b" data-original="#BD742B" class="" style="fill:#FBFBFB" data-old_color="#bd742b"/></g></g> </svg>
